<svg width="134" height="56" viewBox="0 0 134 56" fill="none" xmlns="http://www.w3.org/2000/svg">
<path d="M2.88287 9.9975L3.14122 12.2923L8.37318 13.2973L16.4751 16.6183L25.0648 21.1625L31.0949 24.5399L36.8806 26.569L47.9351 27.242L44.341 32.0922L41.8431 39.5269H30.636L23.9964 45.0531L16.6876 49.542L16.6258 51.6889L16.7614 53.2412L18.9091 52.9646L20.9659 51.535L29.39 45.7482L47.0497 46.378L54.5431 40.385L58.5052 38.5429L64.7747 31.9554L68.9763 30.3437L73.5629 30.6354L78.7988 32.5086L93.0125 32.0056L97.5173 28.8737L98.4879 25.571V30.8044L99.9492 32.9673L114.723 27.6464L116.459 26.9502L120.891 27.919L125.55 29.7611L128.091 31.0327L130.465 29.6535L129.095 27.073L117.84 22.4642L109.177 23.2942L107.853 22.925L111.871 16.8887L112.421 15.784L114.521 14.3565L115.162 15.9209L117.902 16.0134L120.872 14.932L121.511 15.5688L122.972 15.8132L125.531 13.1361L126.139 11.6362L123.46 8.443L123.339 6.84541L121.389 4.88062L116.396 3.89671L114.08 2.05566H112.741L112.498 3.40477L108.72 3.5275L105.189 5.73979L94.8035 6.86051L85.394 12.1131L76.6826 14.8304L71.1992 16.919L62.5507 18.7641L53.4473 18.9643L44.5534 20.9774L37.2117 21.4663L31.6077 19.9915L19.0928 13.7289L11.6293 11.0216L6.30256 9.85963L2.88287 9.9975Z" fill="#C5CAD9" stroke="#C5CAD9" stroke-width="3.81621" stroke-miterlimit="10"/>
</svg>
