<svg width="27" height="23" viewBox="0 0 27 23" fill="none" xmlns="http://www.w3.org/2000/svg">
<path d="M7.02439 17.0549L22.893 17.0597C23.6898 17.0597 24.3836 16.4932 24.5425 15.7128L26.7083 5.0665C26.7806 4.71102 26.6909 4.34673 26.4617 4.06651C26.2333 3.78608 25.8941 3.62522 25.532 3.62522H6.39807L6.24861 2.89598C5.97313 1.5394 4.76778 0.553833 3.38241 0.553833H1.20218C0.936374 0.553833 0.720459 0.769748 0.720459 1.03555C0.720459 1.30136 0.936374 1.51727 1.20218 1.51727H3.38241C4.31122 1.51727 5.11941 2.17814 5.30544 3.08757L7.95208 16.0912H7.02432C5.72753 16.0912 4.67248 17.1463 4.67248 18.4431C4.67248 19.7399 5.72753 20.7949 7.02432 20.7949H8.48197C8.70456 21.8112 9.60931 22.5753 10.6912 22.5753C11.7731 22.5753 12.6779 21.8112 12.9005 20.7949H19.7387C19.9613 21.8112 20.866 22.5753 21.9479 22.5753C23.0298 22.5753 23.9346 21.8112 24.1572 20.7949H25.6901C25.9559 20.7949 26.1718 20.579 26.1718 20.3132C26.1718 20.0474 25.9559 19.8315 25.6901 19.8315H24.1583C23.9376 18.8132 23.032 18.0472 21.9481 18.0472C20.8643 18.0472 19.9587 18.8132 19.738 19.8315H12.9015C12.6808 18.8132 11.7741 18.0472 10.6913 18.0472C9.60832 18.0472 8.70274 18.8132 8.4812 19.8315L7.02399 19.8313C6.25797 19.8313 5.63559 19.2089 5.63559 18.4429C5.63559 17.6771 6.25902 17.0547 7.02399 17.0547L7.02439 17.0549ZM6.59364 4.58914H25.5332C25.7057 4.59688 25.7915 4.70677 25.7644 4.8743L23.5986 15.5211C23.531 15.8555 23.2345 16.0973 22.8943 16.0973L8.93596 16.0925L6.59364 4.58914ZM21.9486 19.0121C22.6654 19.0121 23.2493 19.5949 23.2493 20.3127C23.2493 21.0306 22.6665 21.6134 21.9486 21.6134C21.2308 21.6134 20.648 21.0306 20.648 20.3127C20.648 19.5949 21.2318 19.0121 21.9486 19.0121ZM10.6918 19.0121C11.4097 19.0121 11.9925 19.5949 11.9925 20.3127C11.9925 21.0306 11.4097 21.6134 10.6918 21.6134C9.97504 21.6134 9.39119 21.0306 9.39119 20.3127C9.39119 19.5949 9.97399 19.0121 10.6918 19.0121Z" fill="#1B2858"/>
<path d="M12.4307 10.8246H20.2257C20.4915 10.8246 20.7075 10.6087 20.7075 10.3429C20.7075 10.0771 20.4915 9.86115 20.2257 9.86115H12.4307C12.1649 9.86115 11.949 10.0771 11.949 10.3429C11.949 10.6087 12.1638 10.8246 12.4307 10.8246Z" fill="#1B2858"/>
</svg>
