<svg width="23" height="23" viewBox="0 0 23 23" fill="none" xmlns="http://www.w3.org/2000/svg">
<path d="M21.8496 21.6029L15.8073 15.5684C17.2391 13.9669 18.0982 11.8792 18.0982 9.5912C18.0982 4.61488 14.0319 0.553833 9.04912 0.553833C4.06638 0.553833 0 4.61493 0 9.5912C0 14.5675 4.06638 18.6286 9.04912 18.6286C11.3401 18.6286 13.4305 17.7705 15.0055 16.3693L21.0764 22.4038C21.1909 22.5181 21.3341 22.5753 21.4773 22.5753C21.6206 22.5753 21.7638 22.5181 21.8497 22.4038C22.0788 22.175 22.0788 21.8316 21.8497 21.6028L21.8496 21.6029ZM9.04907 17.4848C4.69628 17.4848 1.14541 13.9384 1.14541 9.59135C1.14541 5.24422 4.69638 1.69796 9.04907 1.69796C13.4019 1.69796 16.9527 5.24432 16.9527 9.59135C16.9529 13.9383 13.4019 17.4848 9.04907 17.4848Z" fill="#1B2858"/>
</svg>
