<svg width="21" height="22" viewBox="0 0 21 22" fill="none" xmlns="http://www.w3.org/2000/svg">
<path d="M10.6179 10.1422C11.8895 10.1424 13.109 9.63731 14.0081 8.73843C14.9075 7.83932 15.4125 6.61989 15.4128 5.34854C15.4128 4.07691 14.9077 2.85748 14.0085 1.95809C13.1097 1.05898 11.8903 0.553833 10.6187 0.553833C9.34702 0.553833 8.12759 1.05868 7.22848 1.95782C6.32937 2.85694 5.82422 4.07636 5.82422 5.34799C5.82554 6.61887 6.33119 7.83749 7.22977 8.73633C8.12834 9.6349 9.34695 10.1406 10.6178 10.1422H10.6179ZM10.6179 1.74224C11.5746 1.74198 12.4919 2.12194 13.1684 2.79836C13.8447 3.47448 14.2247 4.39193 14.2249 5.34854C14.2249 6.30494 13.845 7.22231 13.1686 7.89871C12.4922 8.57511 11.5748 8.95503 10.6184 8.95503C9.66177 8.95477 8.7444 8.57481 8.06827 7.89844C7.39188 7.22205 7.01195 6.30467 7.01215 5.34799C7.01348 4.39213 7.3937 3.47578 8.06956 2.79965C8.74568 2.12378 9.66204 1.74353 10.6179 1.74224Z" fill="#1B2858"/>
<path d="M10.6181 11.0545C8.04806 11.0574 5.58429 12.0796 3.7672 13.8969C1.9499 15.714 0.927723 18.178 0.924805 20.7478V21.3418H20.3121V20.7478C20.3092 18.1778 19.2868 15.7137 17.4695 13.8969C15.6522 12.0796 13.1881 11.0574 10.6179 11.0545H10.6181ZM2.13337 20.1542C2.33462 17.2625 3.99445 14.6725 6.5375 13.2816C9.08055 11.8909 12.1568 11.8909 14.6998 13.2816C17.2429 14.6725 18.9027 17.2625 19.1037 20.1542H2.13337Z" fill="#1B2858"/>
</svg>
