<svg width="152" height="163" viewBox="0 0 152 163" fill="none" xmlns="http://www.w3.org/2000/svg">
<path d="M103.222 93.8766C103.499 93.9241 103.761 93.7581 103.846 93.4935C103.932 93.2288 103.816 92.9411 103.563 92.8181C94.0079 87.8473 88.7133 84.4587 86.2536 79.6594C83.793 74.8598 84.1324 68.5838 85.6742 57.9237C85.7217 57.6469 85.5558 57.3848 85.2911 57.2995C85.0265 57.2143 84.7388 57.3302 84.6157 57.5827C79.6449 67.138 76.2563 72.4327 71.457 74.8923C66.6574 77.3529 60.3814 77.0136 49.7213 75.4717C49.4568 75.4282 49.1947 75.5941 49.0972 75.8548C49.0119 76.1194 49.1155 76.4032 49.368 76.5262C67.705 86.4962 70.4222 89.681 67.2695 111.427C67.222 111.703 67.388 111.966 67.6526 112.051C67.9172 112.136 68.205 112.02 68.328 111.768C73.2988 102.212 76.6874 96.9177 81.4867 94.458C86.2817 92.0086 92.5744 92.3387 103.222 93.8777L103.222 93.8766ZM68.8227 108.419C71.1657 89.92 68.0191 85.6089 52.6052 77.0127C70.7908 79.38 75.4612 77.0166 84.1299 60.9452C81.7868 79.0136 84.1789 83.6793 100.217 92.3246C82.1367 89.9766 77.4668 92.3808 68.8227 108.419Z" fill="#9FC1C3" fill-opacity="0.46"/>
<path d="M74.2448 51.5151C74.285 51.7367 74.4415 51.8987 74.6305 51.9596C74.7184 51.9879 74.8022 51.9867 74.89 51.9733C75.1994 51.9197 75.4058 51.6252 75.3605 51.3321L74.25 44.589C74.1964 44.2796 73.9019 44.0731 73.5965 44.1145C73.2871 44.1681 73.0806 44.4626 73.1259 44.7557L74.2448 51.5151Z" fill="#9FC1C3" fill-opacity="0.46"/>
<path d="M72.0421 38.0188C72.0823 38.2404 72.2388 38.4024 72.4278 38.4633C72.5157 38.4916 72.5995 38.4905 72.6873 38.477C72.9967 38.4234 73.2032 38.1289 73.1618 37.8235L72.1846 31.8326C72.1309 31.5232 71.8365 31.3167 71.531 31.3581C71.2217 31.4117 71.0152 31.7062 71.0565 32.0116L72.0421 38.0188Z" fill="#9FC1C3" fill-opacity="0.46"/>
<path d="M86.5131 49.2767C86.8155 49.3741 87.1317 49.212 87.2291 48.9096L96.8207 19.1378C96.9059 18.8314 96.7429 18.515 96.4537 18.4218C96.1635 18.3283 95.8351 18.4865 95.7376 18.7889L86.1424 48.5719C86.048 48.8617 86.2107 49.1791 86.5131 49.2765L86.5131 49.2767Z" fill="#9FC1C3" fill-opacity="0.46"/>
<path d="M93.8338 58.8545C93.9056 58.9329 93.9901 58.9747 94.078 59.0031C94.267 59.064 94.4886 59.0238 94.6332 58.8762L108.826 45.6134C109.05 45.3935 109.067 45.037 108.847 44.8137C108.627 44.5895 108.27 44.5727 108.047 44.7928L93.8544 58.0557C93.6356 58.2618 93.6179 58.618 93.8338 58.8545L93.8338 58.8545Z" fill="#9FC1C3" fill-opacity="0.46"/>
<path d="M103.087 75.4271C103.143 75.5986 103.283 75.7269 103.446 75.7795C103.56 75.8161 103.685 75.8148 103.793 75.7798L125.821 68.3384C126.117 68.2388 126.277 67.9149 126.178 67.6189C126.078 67.3228 125.754 67.1622 125.458 67.2619L103.432 74.7036C103.148 74.8072 102.988 75.1313 103.087 75.4271L103.087 75.4271Z" fill="#9FC1C3" fill-opacity="0.46"/>
<path d="M107.931 87.3398C107.9 87.6083 108.07 87.8572 108.323 87.9385C108.361 87.9507 108.398 87.9629 108.44 87.9627L132.407 90.5643C132.717 90.5945 132.996 90.3785 133.026 90.0679C133.056 89.7574 132.84 89.4792 132.529 89.449L108.563 86.8474C108.244 86.801 107.962 87.0293 107.931 87.3398L107.931 87.3398Z" fill="#9FC1C3" fill-opacity="0.46"/>
<path d="M111.085 101.085C110.975 101.384 111.125 101.696 111.423 101.807L128.06 107.946L128.086 107.954C128.376 108.047 128.688 107.898 128.794 107.611C128.904 107.313 128.754 107.001 128.456 106.89L111.819 100.751C111.534 100.645 111.196 100.787 111.085 101.085Z" fill="#9FC1C3" fill-opacity="0.46"/>
<path d="M105.581 125.118L93.431 107.946C93.2488 107.693 92.8921 107.634 92.6383 107.816C92.3846 107.998 92.326 108.355 92.5082 108.609L104.658 125.781C104.735 125.889 104.836 125.963 104.949 126C105.113 126.053 105.302 126.03 105.446 125.923C105.704 125.729 105.764 125.373 105.581 125.118L105.581 125.118Z" fill="#9FC1C3" fill-opacity="0.46"/>
<path d="M83.1252 113.166C83.0093 112.879 82.6812 112.731 82.3935 112.847C82.1058 112.963 81.9583 113.291 82.0743 113.579L94.8 145.545C94.8606 145.703 94.9997 145.831 95.151 145.88C95.2767 145.921 95.4023 145.919 95.5317 145.864C95.8194 145.748 95.9668 145.42 95.8509 145.132L83.1252 113.166Z" fill="#9FC1C3" fill-opacity="0.46"/>
<path d="M74.4513 118.622C74.3854 118.309 74.0858 118.115 73.7856 118.185C73.4846 118.255 73.2787 118.551 73.3489 118.851L76.0988 131.993C76.143 132.203 76.2865 132.36 76.4755 132.421C76.5635 132.449 76.6605 132.452 76.7645 132.43C77.0656 132.36 77.2714 132.065 77.2012 131.764L74.4513 118.622Z" fill="#9FC1C3" fill-opacity="0.46"/>
<path d="M63.1296 119.829C62.8272 119.731 62.511 119.893 62.4136 120.196L54.8892 143.551C54.7918 143.853 54.9539 144.17 55.2563 144.267C55.5587 144.364 55.8749 144.202 55.9724 143.9L63.4967 120.545C63.5942 120.242 63.4324 119.925 63.1299 119.828L63.1296 119.829Z" fill="#9FC1C3" fill-opacity="0.46"/>
<path d="M58.1739 109.386C57.9875 109.145 57.6271 109.098 57.3854 109.285L34.4615 127.023C34.2209 127.209 34.1737 127.57 34.3608 127.811C34.4283 127.903 34.5338 127.964 34.6349 127.997C34.8116 128.054 34.9995 128.031 35.1532 127.9L58.0736 110.173C58.3267 109.99 58.3697 109.643 58.1743 109.385L58.1739 109.386Z" fill="#9FC1C3" fill-opacity="0.46"/>
<path d="M52.6687 96.5943C52.569 96.2982 52.2452 96.1376 51.9491 96.2373L20.4053 106.789C20.1092 106.889 19.9486 107.213 20.0483 107.509C20.1046 107.68 20.2438 107.809 20.4073 107.861C20.5207 107.898 20.6463 107.897 20.7546 107.862L52.2985 97.3096C52.6077 97.2142 52.7675 96.8901 52.6678 96.594L52.6687 96.5943Z" fill="#9FC1C3" fill-opacity="0.46"/>
<path d="M40.4729 79.8241C40.5163 79.5178 40.3033 79.2269 39.9979 79.1839L24.891 76.8903C24.5847 76.8469 24.2938 77.0599 24.2508 77.3653C24.2033 77.6421 24.3816 77.9081 24.6339 77.9894C24.6594 77.9976 24.6972 78.0098 24.7258 78.0054L39.8328 80.299C40.139 80.3424 40.4265 80.1429 40.4729 79.8241L40.4729 79.8241Z" fill="#9FC1C3" fill-opacity="0.46"/>
<path d="M47.2443 68.2601C47.4711 68.3332 47.7172 68.2591 47.8659 68.0567C48.0562 67.8123 48.0066 67.448 47.7448 67.2666L25.972 50.9447C25.7276 50.7543 25.3633 50.8039 25.1819 51.0657C24.9916 51.31 25.0411 51.6744 25.3029 51.8557L47.087 68.1813C47.1341 68.21 47.1931 68.2436 47.2432 68.2598L47.2443 68.2601Z" fill="#9FC1C3" fill-opacity="0.46"/>
<path d="M59.0544 63.857C59.1272 63.9775 59.2365 64.069 59.3622 64.1095C59.5134 64.1582 59.685 64.1437 59.8266 64.0505C60.101 63.8886 60.186 63.5404 60.0201 63.2783L50.4498 47.2992C50.2879 47.0248 49.9397 46.9398 49.6776 47.1057C49.4032 47.2677 49.3182 47.6158 49.4841 47.8779L59.0544 63.857Z" fill="#9FC1C3" fill-opacity="0.46"/>
<path d="M68.0658 60.808C68.1264 60.9662 68.2572 61.0783 68.4085 61.127C68.5342 61.1675 68.673 61.1705 68.8015 61.1148C69.0892 60.9989 69.2243 60.6669 69.0952 60.3749L56.5087 30.5679C56.3928 30.2802 56.0607 30.1451 55.7688 30.2742C55.481 30.3902 55.3459 30.7222 55.4751 31.0142L68.0658 60.808Z" fill="#9FC1C3" fill-opacity="0.46"/>
<path d="M33.5855 91.6561L26.0742 92.6026C25.7691 92.643 25.5417 92.9182 25.5782 93.2356C25.6012 93.4653 25.7669 93.6438 25.9682 93.7087C26.0438 93.733 26.1234 93.7451 26.2112 93.7316L33.7225 92.7851C34.0276 92.7447 34.255 92.4696 34.2185 92.1521C34.1697 91.8307 33.8906 91.6156 33.5855 91.6561L33.5855 91.6561Z" fill="#9FC1C3" fill-opacity="0.46"/>
<path d="M40.6406 91.2164C40.6637 91.446 40.8294 91.6246 41.0307 91.6894C41.1063 91.7138 41.1859 91.7258 41.2737 91.7124L45.9919 91.1461C46.297 91.1056 46.5244 90.8305 46.4879 90.5131C46.4475 90.2079 46.1724 89.9805 45.8549 90.017L41.1367 90.5833C40.8273 90.637 40.6002 90.9112 40.6406 91.2164L40.6406 91.2164Z" fill="#9FC1C3" fill-opacity="0.46"/>
<path d="M123.54 122.835L119.43 118.966C119.206 118.755 118.842 118.763 118.631 118.987C118.42 119.211 118.428 119.576 118.652 119.787L122.761 123.656C122.824 123.718 122.896 123.755 122.972 123.779C123.173 123.844 123.398 123.791 123.56 123.635C123.771 123.411 123.759 123.06 123.54 122.835L123.54 122.835Z" fill="#9FC1C3" fill-opacity="0.46"/>
<path d="M112.65 112.592L104.571 104.981C104.347 104.77 103.982 104.778 103.771 105.002C103.56 105.226 103.568 105.591 103.792 105.801L111.871 113.413C111.934 113.475 112.006 113.511 112.082 113.536C112.283 113.601 112.509 113.548 112.671 113.392C112.886 113.155 112.873 112.804 112.65 112.592L112.65 112.592Z" fill="#9FC1C3" fill-opacity="0.46"/>
<path d="M122.555 51.749C122.707 51.7977 122.891 51.7871 123.036 51.6817L126.723 49.308C126.985 49.1421 127.057 48.7896 126.891 48.5275C126.725 48.2654 126.373 48.1936 126.11 48.3596L122.424 50.7332C122.162 50.8992 122.09 51.2516 122.256 51.5137C122.328 51.6342 122.442 51.7125 122.555 51.749Z" fill="#9FC1C3" fill-opacity="0.46"/>
<path d="M96.8973 67.8284C96.9701 67.9489 97.0836 68.0272 97.1971 68.0638C97.3483 68.1125 97.5322 68.1019 97.6778 67.9964L117.228 55.4166C117.49 55.2506 117.562 54.8982 117.396 54.6361C117.23 54.374 116.878 54.3022 116.616 54.4681L97.0695 67.0349C96.8155 67.218 96.7314 67.5664 96.8973 67.8286L96.8973 67.8284Z" fill="#9FC1C3" fill-opacity="0.46"/>
</svg>
