<svg width="43" height="55" viewBox="0 0 43 55" fill="none" xmlns="http://www.w3.org/2000/svg">
<path d="M14.3156 34.2856L8.62332 31.6922C8.33015 31.5595 7.99234 31.584 7.72109 31.7575C7.45109 31.9311 7.28809 32.2297 7.28809 32.5507V37.7387C7.28809 38.1085 7.50375 38.4442 7.84071 38.5975L13.5329 41.1905C13.6572 41.2474 13.7907 41.2752 13.9238 41.2752C14.1024 41.2752 14.2793 41.2246 14.4343 41.1248C14.7043 40.9513 14.8673 40.6526 14.8673 40.3317V35.1441C14.8673 34.7751 14.6517 34.439 14.3156 34.2856V34.2856ZM12.9803 38.8655L9.17509 37.1318V34.0178L12.9803 35.7515V38.8655Z" fill="#589195"/>
<path d="M35.4773 31.7581C35.2065 31.5833 34.8682 31.5593 34.5751 31.6928L28.8828 34.2862C28.5467 34.4396 28.3311 34.7757 28.3311 35.1451V40.3327C28.3311 40.6536 28.4941 40.9523 28.7641 41.1258C28.9191 41.2252 29.096 41.2762 29.2746 41.2762C29.4073 41.2762 29.5408 41.248 29.6654 41.1915L35.3577 38.5985C35.6951 38.4452 35.9103 38.1099 35.9103 37.7397V32.5512C35.9103 32.2303 35.7473 31.9316 35.4773 31.7581V31.7581ZM34.0233 37.1319L30.2181 38.8656V35.7516L34.0233 34.0179V37.1319Z" fill="#589195"/>
<path d="M42.2911 20.491C42.2797 20.4606 42.2658 20.4337 42.2515 20.4046C42.2145 20.3301 42.169 20.2627 42.1138 20.1999C42.0948 20.1789 42.0797 20.1561 42.059 20.1367C41.9845 20.0664 41.9015 20.0041 41.8046 19.9603L41.7814 19.9497H41.781L31.9786 15.4849V9.90687C31.9786 4.44421 27.5349 0 22.0718 0C16.6087 0 12.1649 4.44421 12.1649 9.90687V14.1527H9.33436C8.93926 14.1527 8.58629 14.3987 8.44982 14.7685C8.31251 15.1387 8.42033 15.5553 8.72065 15.8122L9.33857 16.3417L1.39582 19.9599C1.29894 20.0037 1.21596 20.0661 1.14141 20.1364C1.12077 20.1558 1.10518 20.1785 1.08623 20.2C1.03105 20.2624 0.985138 20.3302 0.948497 20.4047C0.934176 20.4334 0.920276 20.4603 0.908904 20.4907C0.870152 20.5951 0.842773 20.7038 0.842773 20.8192V44.2841C0.842773 44.6539 1.05843 44.9896 1.3954 45.1429L21.2092 54.1682C21.223 54.1745 21.2382 54.172 21.2521 54.1774C21.3633 54.2221 21.4791 54.2533 21.6005 54.2533C21.603 54.2533 21.6055 54.2516 21.6085 54.2516C21.7243 54.2503 21.8368 54.2213 21.9454 54.1779C21.9602 54.172 21.9758 54.1745 21.9905 54.1682L41.8042 45.1429C42.1416 44.9892 42.3573 44.6539 42.3573 44.2836V20.8199C42.3573 20.7044 42.3299 20.5958 42.2912 20.4917L42.2911 20.491ZM13.108 16.0396C13.6295 16.0396 14.0515 15.6172 14.0515 15.0961V9.90682C14.0515 5.4845 17.6495 1.88697 22.0714 1.88697C26.4933 1.88697 30.0912 5.4845 30.0912 9.90682V18.8702H26.3172V9.90682C26.3172 7.56572 24.4125 5.66102 22.0714 5.66102C19.7303 5.66102 17.8256 7.56572 17.8256 9.90682V15.0961C17.8256 15.6172 18.2476 16.0396 18.7691 16.0396H19.9927L15.9386 19.5147L12.1009 16.225C12.0904 16.1934 12.0929 16.161 12.079 16.1302C12.063 16.0948 12.0331 16.0721 12.0133 16.0397L13.108 16.0396ZM10.9178 17.6958L15.3249 21.4732C15.501 21.6253 15.7204 21.7006 15.9386 21.7006C16.1568 21.7006 16.3762 21.6253 16.5523 21.4736L23.1569 15.8125C23.4572 15.5556 23.565 15.139 23.4277 14.7688C23.2913 14.3985 22.9383 14.1526 22.5432 14.1526H19.7126V9.90675C19.7126 8.60611 20.7703 7.54797 22.0714 7.54797C23.3725 7.54797 24.4302 8.60605 24.4302 9.90675V19.8136C24.4302 20.3347 24.8523 20.7571 25.3737 20.7571H31.0348C31.5562 20.7571 31.9783 20.3347 31.9783 19.8136V17.558L39.1377 20.819L21.6002 28.8069L4.06275 20.8186L10.9178 17.6958ZM2.72939 43.6763V22.285L20.6561 30.4503V51.8416L2.72939 43.6763ZM22.5431 51.842V30.4507L40.4699 22.2855V43.6768L22.5431 51.842Z" fill="#589195"/>
</svg>
