<svg width="14" height="14" viewBox="0 0 14 14" fill="none" xmlns="http://www.w3.org/2000/svg">
<path d="M11.0756 13.9572L7.12208 10.9416C7.04927 10.8861 6.95079 10.8861 6.87797 10.9416L2.92446 13.9572C2.76169 14.0813 2.54273 13.9143 2.60486 13.7135L4.11491 8.83435C4.14274 8.74454 4.11221 8.64613 4.03951 8.59064L0.0859977 5.57503C-0.0767736 5.45091 0.00693041 5.18061 0.208105 5.18061H5.1386C5.20257 5.18061 5.2592 5.13735 5.27894 5.07359L6.80246 0.150673C6.86459 -0.0502243 7.13535 -0.0502243 7.19748 0.150673L8.72112 5.07359C8.74086 5.13746 8.79749 5.18061 8.86145 5.18061H13.7919C13.9931 5.18061 14.0767 5.45092 13.9141 5.57503L9.9252 8.61761C9.87353 8.65702 9.85185 8.727 9.87159 8.79076L11.3952 13.7137C11.4574 13.9145 11.2383 14.0815 11.0756 13.9574L11.0756 13.9572Z" fill="#FFB400"/>
</svg>
