<svg width="48" height="48" viewBox="0 0 48 48" fill="none" xmlns="http://www.w3.org/2000/svg">
<path d="M42.2014 33.0977C42.2014 32.6406 41.8307 32.2699 41.3735 32.2699C40.9164 32.2699 40.5457 32.6406 40.5457 33.0977C40.5457 33.6895 40.23 34.2361 39.7178 34.5317C39.2055 34.8274 38.5743 34.8274 38.062 34.5317C37.5498 34.2361 37.2341 33.6894 37.2341 33.0977C37.2341 32.6406 36.8634 32.2699 36.4063 32.2699C35.9491 32.2699 35.5784 32.6406 35.5784 33.0977C35.5795 33.8329 35.8245 34.5469 36.2754 35.1275C36.7263 35.7081 37.3572 36.1225 38.069 36.3058C38.0646 36.3401 38.0624 36.3745 38.062 36.4093V37.2371C38.062 37.6943 38.4327 38.065 38.8899 38.065C39.3471 38.065 39.7178 37.6943 39.7178 37.2371V36.4093C39.7174 36.3745 39.7152 36.3401 39.7108 36.3058C40.4226 36.1225 41.0534 35.7081 41.5044 35.1275C41.9553 34.5469 42.2003 33.8328 42.2014 33.0977H42.2014Z" fill="#589195"/>
<path d="M39.7178 40.5487C39.7178 41.0059 39.3471 41.3766 38.8899 41.3766C38.4327 41.3766 38.062 41.0059 38.062 40.5487C38.062 40.0915 38.4327 39.7208 38.8899 39.7208C39.3471 39.7208 39.7178 40.0915 39.7178 40.5487Z" fill="#589195"/>
<path d="M47.1687 46.3439H46.3408V43.8602C46.333 41.496 45.0728 39.3131 43.0293 38.1242V38.0055V38.0059C45.0728 36.817 46.333 34.6341 46.3408 32.2699V29.7862H47.1687C47.6258 29.7862 47.9965 29.4155 47.9965 28.9583C47.9965 28.5012 47.6258 28.1305 47.1687 28.1305H43.9259C45.2402 23.2293 44.8466 18.0265 42.8105 13.379C40.7744 8.73154 37.2171 4.91429 32.7236 2.55696C28.2298 0.199717 23.0681 -0.557582 18.0866 0.409668C13.1053 1.37654 8.60148 4.01024 5.3155 7.87763C2.03018 11.7446 0.158982 16.6151 0.00967943 21.6876C-0.139633 26.7599 1.44225 31.732 4.49462 35.7853C7.547 39.8386 11.8886 42.7329 16.805 43.991C21.7214 45.2491 26.9184 44.7963 31.5432 42.7074C31.4748 43.0877 31.4401 43.474 31.4397 43.8606V46.3442H30.6118C30.1546 46.3442 29.7839 46.7149 29.7839 47.1721C29.7839 47.6293 30.1546 48 30.6118 48H47.1694C47.6266 48 47.9973 47.6293 47.9973 47.1721C47.9973 46.7149 47.6266 46.3442 47.1694 46.3442L47.1687 46.3439ZM22.3322 43.0323C10.9197 43.0323 1.63517 33.7475 1.63517 22.3353C1.63517 10.9231 10.92 1.63824 22.3322 1.63824C33.7444 1.63824 43.0293 10.9231 43.0293 22.3353C43.0307 24.2964 42.7539 26.2474 42.2069 28.1305H40.4743C41.0723 26.257 41.3758 24.3019 41.3735 22.3353C41.3735 11.8359 32.8316 3.29401 22.3323 3.29401C11.8329 3.29401 3.29098 11.8359 3.29098 22.3353C3.29098 32.8346 11.8329 41.3766 22.3323 41.3766C26.5248 41.3743 30.5996 39.9906 33.9264 37.4394C34.1862 37.6489 34.4615 37.8381 34.7502 38.0059V38.1246V38.1242C33.7937 38.6804 32.9909 39.4666 32.4151 40.4112C29.3324 42.1306 25.8615 43.0327 22.332 43.0324L22.3322 43.0323ZM30.611 28.1305C30.1538 28.1305 29.7831 28.5012 29.7831 28.9583C29.7831 29.4155 30.1538 29.7862 30.611 29.7862H31.4389V32.2699C31.4419 33.7021 31.9083 35.0946 32.7683 36.24C29.9834 38.3274 26.6368 39.5331 23.1602 39.7001V38.8929C23.1602 38.4357 22.7895 38.065 22.3323 38.065C21.8751 38.065 21.5044 38.4357 21.5044 38.8929V39.7005C17.4696 39.5112 13.6277 37.9172 10.6436 35.1944L11.2094 34.6286C11.5324 34.3055 11.5324 33.7811 11.2094 33.4577C10.886 33.1347 10.3616 33.1347 10.0385 33.4577L9.4727 34.0236C6.74996 31.0399 5.15589 27.1979 4.96666 23.1627H5.77422C6.2314 23.1627 6.6021 22.792 6.6021 22.3348C6.6021 21.8776 6.2314 21.5069 5.77422 21.5069H4.96666C5.15589 17.4721 6.74996 13.6302 9.4727 10.6461L10.0385 11.2119C10.3616 11.5349 10.886 11.5349 11.2094 11.2119C11.5324 10.8885 11.5324 10.3641 11.2094 10.0411L10.6436 9.47521C13.6272 6.75247 17.4692 5.1584 21.5044 4.96917V5.77672C21.5044 6.2339 21.8751 6.60461 22.3323 6.60461C22.7895 6.60461 23.1602 6.2339 23.1602 5.77672V4.96917C27.195 5.1584 31.0369 6.75247 34.021 9.47521L33.4552 10.0411C33.1322 10.3641 33.1322 10.8885 33.4552 11.2119C33.7786 11.5349 34.303 11.5349 34.6261 11.2119L35.1919 10.6461C37.9146 13.6298 39.5087 17.4717 39.698 21.5069H38.8904C38.4332 21.5069 38.0625 21.8776 38.0625 22.3348C38.0625 22.792 38.4332 23.1627 38.8904 23.1627H39.6991C39.6211 24.8573 39.294 26.5308 38.7281 28.13L30.611 28.1305ZM36.4062 46.3439C36.4062 45.5082 37.6366 44.6881 38.8898 44.6881C40.1431 44.6881 41.3735 45.5082 41.3735 46.3439H36.4062ZM38.8898 43.0323C36.9322 43.0323 34.7504 44.3924 34.7504 46.3439H33.0947V43.8602C33.0976 42.9207 33.3656 42.0012 33.8679 41.2069C34.3701 40.413 35.086 39.7766 35.9335 39.3712C36.2221 39.2341 36.4062 38.9432 36.4062 38.6239V37.5063C36.4062 37.1866 36.2221 36.8957 35.9335 36.7583C35.086 36.3532 34.3702 35.7167 33.8679 34.9229C33.3656 34.129 33.0976 33.2095 33.0947 32.27V29.7864H44.685V32.27C44.6821 33.2095 44.4141 34.129 43.9118 34.9233C43.4096 35.7172 42.6937 36.3536 41.8462 36.759C41.5575 36.8961 41.3735 37.187 41.3735 37.5063V38.6239C41.3735 38.9436 41.5575 39.2345 41.8462 39.372C42.6937 39.777 43.4095 40.4135 43.9118 41.2073C44.4141 42.0012 44.6821 42.9207 44.685 43.8602V46.3439H43.0293C43.0293 44.3924 40.8475 43.0323 38.8898 43.0323Z" fill="#589195"/>
<path d="M34.5083 20.0939C34.1849 19.7705 33.6608 19.7705 33.3374 20.0939C33.014 20.4173 33.014 20.9413 33.3374 21.2647L33.5799 21.5072H24.6738C24.4221 20.8009 23.8667 20.2454 23.1604 19.9937V14.3992L23.4028 14.6417C23.7262 14.9651 24.2503 14.9651 24.5737 14.6417C24.8971 14.3183 24.8971 13.7942 24.5737 13.4708L22.9179 11.8151C22.7627 11.6598 22.552 11.5726 22.3325 11.5726C22.113 11.5726 21.9023 11.6598 21.7471 11.8151L20.0913 13.4708C19.7679 13.7942 19.7679 14.3183 20.0913 14.6417C20.4147 14.9651 20.9388 14.9651 21.2622 14.6417L21.5046 14.3992V19.9941V19.9937C20.7004 20.2779 20.0983 20.9546 19.9099 21.7866C19.7214 22.6185 19.9727 23.4885 20.5759 24.0917C21.1791 24.6949 22.049 24.9462 22.881 24.7577C23.7129 24.5692 24.3896 23.9671 24.6738 23.163H33.5802L33.3378 23.4054H33.3374C33.014 23.7288 33.014 24.2529 33.3374 24.5763C33.6608 24.8997 34.1849 24.8997 34.5083 24.5763L36.164 22.9205C36.3193 22.7653 36.4065 22.5546 36.4065 22.3351C36.4065 22.1155 36.3193 21.9049 36.164 21.7496L34.5083 20.0939ZM22.3323 23.163C21.9974 23.163 21.6954 22.9612 21.5676 22.6519C21.4393 22.3425 21.5099 21.9866 21.7468 21.7497C21.9837 21.5128 22.3396 21.4422 22.649 21.5704C22.9583 21.6983 23.1601 22.0003 23.1601 22.3351C23.1598 22.7923 22.7894 23.1626 22.3323 23.163Z" fill="#589195"/>
</svg>
